<svg id="Group_22677" data-name="Group 22677" xmlns="http://www.w3.org/2000/svg" width="45.137" height="14.643" viewBox="0 0 45.137 14.643">
  <g id="Group_22676" data-name="Group 22676" transform="translate(0 0)">
    <path id="Path_21524" data-name="Path 21524" d="M30.793,65.918H27.11l2.3-14.147H33.1ZM24.012,51.772,20.5,61.5l-.416-2.1h0l-1.239-6.362A1.577,1.577,0,0,0,17.1,51.772h-5.8l-.068.24a13.779,13.779,0,0,1,3.853,1.617l3.2,12.291h3.837l5.86-14.147ZM52.981,65.918h3.382L53.415,51.771H50.454a1.692,1.692,0,0,0-1.7,1.054L43.261,65.918H47.1l.768-2.1H52.55Zm-4.053-5,1.935-5.294,1.089,5.294Zm-5.38-5.741.526-3.038a10.631,10.631,0,0,0-3.313-.617c-1.828,0-6.168.8-6.168,4.683,0,3.655,5.094,3.7,5.094,5.62s-4.569,1.576-6.077.365l-.548,3.176a10.321,10.321,0,0,0,4.157.8c2.513,0,6.305-1.3,6.305-4.843,0-3.678-5.14-4.021-5.14-5.62s3.587-1.394,5.163-.526Z" transform="translate(-11.226 -51.519)" fill="#2566af"/>
  </g>
  <path id="Path_21525" data-name="Path 21525" d="M20.085,59.822,18.846,53.46A1.577,1.577,0,0,0,17.1,52.186h-5.8l-.068.24a14.27,14.27,0,0,1,5.466,2.745A11.031,11.031,0,0,1,20.085,59.822Z" transform="translate(-11.226 -51.933)" fill="#e6a540"/>
</svg>
