<svg id="Group_22678" data-name="Group 22678" xmlns="http://www.w3.org/2000/svg" width="30.537" height="18.875" viewBox="0 0 30.537 18.875">
  <path id="Path_21520" data-name="Path 21520" d="M1929.645,977.586v-.366h-.1l-.11.251-.11-.251h-.1v.366h.067v-.276l.1.238h.071l.1-.239v.277h.067Zm-.6,0v-.3h.122v-.062h-.312v.062h.122v.3h.067Z" transform="translate(-1899.402 -962.301)" fill="#f79410"/>
  <path id="Path_21521" data-name="Path 21521" d="M737.967,146.989H729.71V132.15h8.258Z" transform="translate(-718.57 -130.133)" fill="#ff5f00"/>
  <path id="Path_21522" data-name="Path 21522" d="M11.664,9.437a9.422,9.422,0,0,1,3.6-7.42,9.437,9.437,0,1,0,0,14.839,9.422,9.422,0,0,1-3.6-7.42" transform="translate(0 0.001)" fill="#eb001b"/>
  <path id="Path_21523" data-name="Path 21523" d="M1015.379,9.437a9.437,9.437,0,0,1-15.269,7.42,9.438,9.438,0,0,0,0-14.839,9.437,9.437,0,0,1,15.269,7.42" transform="translate(-984.841 0.001)" fill="#f79e1b"/>
</svg>
