<svg xmlns="http://www.w3.org/2000/svg" width="132.497" height="133.844" viewBox="0 0 132.497 133.844">
  <g id="Group_69617" data-name="Group 69617" transform="translate(-10163.821 16242.845)" style="mix-blend-mode: normal;isolation: isolate">
    <g id="Group_69616" data-name="Group 69616" transform="translate(-56.539 32.696)">
      <g id="Group_26680" data-name="Group 26680" transform="translate(8986.404 -16548)">
        <line id="Line_1475" data-name="Line 1475" x2="11.583" y2="17.046" transform="translate(1236.734 278.912)" fill="none" stroke="#000" stroke-linecap="round" stroke-width="4"/>
        <line id="Line_1476" data-name="Line 1476" x2="0.874" y2="21.199" transform="translate(1267.77 274.541)" fill="none" stroke="#000" stroke-linecap="round" stroke-width="4"/>
        <line id="Line_1477" data-name="Line 1477" x1="10.927" y2="18.139" transform="translate(1288.531 278.475)" fill="none" stroke="#000" stroke-linecap="round" stroke-width="4"/>
      </g>
    </g>
    <g id="Group_69615" data-name="Group 69615" transform="translate(263.682 -283.715)">
      <g id="Group_69614" data-name="Group 69614" transform="translate(-244.184 -46.653)">
        <g id="Path_87430" data-name="Path 87430" transform="translate(10146.184 -15879)" fill="#739536">
          <path d="M 32.46367645263672 62.9273567199707 C 28.35022735595703 62.9273567199707 24.36087608337402 62.12217712402344 20.6064567565918 60.53418731689453 C 16.97909736633301 58.99994659423828 13.72097682952881 56.80312728881836 10.92260646820068 54.00475692749023 C 8.124226570129395 51.20637512207031 5.927406311035156 47.94825744628906 4.393166542053223 44.32090759277344 C 2.805176496505737 40.56647491455078 1.999996423721313 36.57712554931641 1.999996423721313 32.46367645263672 C 1.999996423721313 28.35022735595703 2.805176496505737 24.36087608337402 4.393166542053223 20.6064567565918 C 5.927406311035156 16.97909736633301 8.124226570129395 13.72097682952881 10.92260646820068 10.92260646820068 C 13.72097682952881 8.124226570129395 16.97909736633301 5.927406311035156 20.6064567565918 4.393166542053223 C 24.36087608337402 2.805176496505737 28.35022735595703 1.999996423721313 32.46367645263672 1.999996423721313 C 36.57712554931641 1.999996423721313 40.56647491455078 2.805176496505737 44.32090759277344 4.393166542053223 C 47.94825744628906 5.927406311035156 51.20637512207031 8.124226570129395 54.00475692749023 10.92260646820068 C 56.80312728881836 13.72097682952881 58.99994659423828 16.97909736633301 60.53418731689453 20.6064567565918 C 62.12217712402344 24.36087608337402 62.9273567199707 28.35022735595703 62.9273567199707 32.46367645263672 C 62.9273567199707 36.57712554931641 62.12217712402344 40.56647491455078 60.53418731689453 44.32090759277344 C 58.99994659423828 47.94825744628906 56.80312728881836 51.20637512207031 54.00475692749023 54.00475692749023 C 51.20637512207031 56.80312728881836 47.94825744628906 58.99994659423828 44.32090759277344 60.53418731689453 C 40.56647491455078 62.12217712402344 36.57712554931641 62.9273567199707 32.46367645263672 62.9273567199707 Z" stroke="none"/>
          <path d="M 32.46367645263672 3.999992370605469 C 28.61934661865234 3.999992370605469 24.89212417602539 4.752017974853516 21.38555908203125 6.235172271728516 C 17.99660491943359 7.668582916259766 14.9521598815918 9.721466064453125 12.33681869506836 12.33681869506836 C 9.721466064453125 14.9521598815918 7.668582916259766 17.99660491943359 6.235172271728516 21.38555908203125 C 4.752017974853516 24.89212417602539 3.999992370605469 28.61934661865234 3.999992370605469 32.46367645263672 C 3.999992370605469 36.30800628662109 4.752017974853516 40.03522872924805 6.235172271728516 43.54179382324219 C 7.668582916259766 46.93075942993164 9.721466064453125 49.97519302368164 12.33681869506836 52.59053421020508 C 14.9521598815918 55.20587539672852 17.9965934753418 57.25876998901367 21.38555908203125 58.69216918945312 C 24.89212417602539 60.17532348632812 28.61934661865234 60.92734527587891 32.46367645263672 60.92734527587891 C 36.30801773071289 60.92734527587891 40.03522872924805 60.17532348632812 43.54179382324219 58.69216918945312 C 46.93075942993164 57.25876998901367 49.97519302368164 55.20587539672852 52.59053421020508 52.59053421020508 C 55.20587539672852 49.97519302368164 57.25876998901367 46.93075942993164 58.69216918945312 43.54179382324219 C 60.17532348632812 40.03522872924805 60.92734527587891 36.30801773071289 60.92734527587891 32.46367645263672 C 60.92734527587891 28.61934661865234 60.17532348632812 24.89212417602539 58.69216918945312 21.38555908203125 C 57.25876998901367 17.9965934753418 55.20587539672852 14.9521598815918 52.59053421020508 12.33681869506836 C 49.97519302368164 9.721466064453125 46.93075942993164 7.668582916259766 43.54179382324219 6.235172271728516 C 40.03522872924805 4.752017974853516 36.30800628662109 3.999992370605469 32.46367645263672 3.999992370605469 M 32.46367645263672 -7.62939453125e-06 C 50.39287567138672 -7.62939453125e-06 64.92734527587891 14.53448867797852 64.92734527587891 32.46367645263672 C 64.92734527587891 50.39287567138672 50.39287567138672 64.92734527587891 32.46367645263672 64.92734527587891 C 14.53448867797852 64.92734527587891 -7.62939453125e-06 50.39287567138672 -7.62939453125e-06 32.46367645263672 C -7.62939453125e-06 14.53448867797852 14.53448867797852 -7.62939453125e-06 32.46367645263672 -7.62939453125e-06 Z" stroke="none" fill="#000"/>
        </g>
        <text id="_0" data-name="0" transform="translate(10169.185 -15836.999)" fill="#fff" font-size="26" font-family="BaiJamjuree-Bold, Bai Jamjuree" font-weight="700"><tspan x="0" y="0">0</tspan></text>
      </g>
      <rect id="Rectangle_17562" data-name="Rectangle 17562" width="80" height="78" rx="10" transform="translate(9951 -15906)" fill="#fff"/>
      <g id="Group_69613" data-name="Group 69613">
        <path id="shopping-bag-alt" d="M23.9,49.444a2.322,2.322,0,1,1,0-4.644h2.322a18.578,18.578,0,0,1,37.156,0H65.7a2.322,2.322,0,1,1,0,4.644H56.413a2.322,2.322,0,1,1,0-4.644h2.322a13.934,13.934,0,0,0-27.867,0H33.19a2.322,2.322,0,1,1,0,4.644Z" transform="translate(9946.018 -15893.309)"/>
        <path id="shopping-bag-alt-2" data-name="shopping-bag-alt" d="M75.026,81.956a6.969,6.969,0,0,0,6.967-6.967V20.273a9.229,9.229,0,0,1-4.682,1.305H12.289a9.183,9.183,0,0,1-4.644-1.287v54.7a6.969,6.969,0,0,0,6.967,6.967ZM12.289,7.644a4.644,4.644,0,1,0,0,9.289H77.311a4.644,4.644,0,1,0,0-9.289Zm74.27,4.236a2.035,2.035,0,0,1,.079.372V74.989A11.612,11.612,0,0,1,75.026,86.6H14.611A11.609,11.609,0,0,1,3,74.989v-62.7A9.292,9.292,0,0,1,12.289,3H77.311A9.265,9.265,0,0,1,86.558,11.88Z" transform="translate(9946 -15911.886)"/>
        <circle id="Ellipse_91386" data-name="Ellipse 91386" cx="3.5" cy="3.5" r="3.5" transform="translate(9968 -15881)"/>
        <circle id="Ellipse_91387" data-name="Ellipse 91387" cx="3.5" cy="3.5" r="3.5" transform="translate(10008 -15881)"/>
      </g>
    </g>
  </g>
</svg>
