<svg id="google" xmlns="http://www.w3.org/2000/svg" width="15.808" height="16.13" viewBox="0 0 15.808 16.13">
  <path id="Path_87713" data-name="Path 87713" d="M138.293,108.41a6.911,6.911,0,0,0-.17-1.649H130.55v2.993h4.445a3.941,3.941,0,0,1-1.649,2.617l-.015.1,2.394,1.855.166.017a7.886,7.886,0,0,0,2.4-5.932" transform="translate(-122.485 -100.165)" fill="#4285f4"/>
  <path id="Path_87714" data-name="Path 87714" d="M21.13,162.84a7.687,7.687,0,0,0,5.341-1.954l-2.545-1.972a4.773,4.773,0,0,1-2.8.807,4.855,4.855,0,0,1-4.588-3.351l-.095.008-2.49,1.927-.033.09a8.059,8.059,0,0,0,7.2,4.445" transform="translate(-13.065 -146.71)" fill="#34a853"/>
  <path id="Path_87715" data-name="Path 87715" d="M3.477,76.567a4.965,4.965,0,0,1-.269-1.6,5.217,5.217,0,0,1,.26-1.6l0-.107L.943,71.312l-.082.039a8.048,8.048,0,0,0,0,7.241l2.617-2.025" transform="translate(0 -66.906)" fill="#fbbc05"/>
  <path id="Path_87716" data-name="Path 87716" d="M21.13,3.119a4.47,4.47,0,0,1,3.119,1.2L26.525,2.1A7.749,7.749,0,0,0,21.13,0a8.059,8.059,0,0,0-7.2,4.445L16.533,6.47a4.875,4.875,0,0,1,4.6-3.352" transform="translate(-13.065)" fill="#eb4335"/>
</svg>
