<svg xmlns="http://www.w3.org/2000/svg" width="143.577" height="85.962" viewBox="0 0 143.577 85.962">
  <g id="Group_69674" data-name="Group 69674" transform="translate(-1027 -473.037)">
    <g id="Group_69672" data-name="Group 69672" transform="translate(-9119.184 16358.044)">
      <g id="Path_87430" data-name="Path 87430" transform="translate(10146.184 -15879)" fill="#739536">
        <path d="M 32.46367645263672 62.9273567199707 C 28.35022735595703 62.9273567199707 24.36087608337402 62.12217712402344 20.6064567565918 60.53418731689453 C 16.97909736633301 58.99994659423828 13.72097682952881 56.80312728881836 10.92260646820068 54.00475692749023 C 8.124226570129395 51.20637512207031 5.927406311035156 47.94825744628906 4.393166542053223 44.32090759277344 C 2.805176496505737 40.56647491455078 1.999996423721313 36.57712554931641 1.999996423721313 32.46367645263672 C 1.999996423721313 28.35022735595703 2.805176496505737 24.36087608337402 4.393166542053223 20.6064567565918 C 5.927406311035156 16.97909736633301 8.124226570129395 13.72097682952881 10.92260646820068 10.92260646820068 C 13.72097682952881 8.124226570129395 16.97909736633301 5.927406311035156 20.6064567565918 4.393166542053223 C 24.36087608337402 2.805176496505737 28.35022735595703 1.999996423721313 32.46367645263672 1.999996423721313 C 36.57712554931641 1.999996423721313 40.56647491455078 2.805176496505737 44.32090759277344 4.393166542053223 C 47.94825744628906 5.927406311035156 51.20637512207031 8.124226570129395 54.00475692749023 10.92260646820068 C 56.80312728881836 13.72097682952881 58.99994659423828 16.97909736633301 60.53418731689453 20.6064567565918 C 62.12217712402344 24.36087608337402 62.9273567199707 28.35022735595703 62.9273567199707 32.46367645263672 C 62.9273567199707 36.57712554931641 62.12217712402344 40.56647491455078 60.53418731689453 44.32090759277344 C 58.99994659423828 47.94825744628906 56.80312728881836 51.20637512207031 54.00475692749023 54.00475692749023 C 51.20637512207031 56.80312728881836 47.94825744628906 58.99994659423828 44.32090759277344 60.53418731689453 C 40.56647491455078 62.12217712402344 36.57712554931641 62.9273567199707 32.46367645263672 62.9273567199707 Z" stroke="none"/>
        <path d="M 32.46367645263672 3.999992370605469 C 28.61934661865234 3.999992370605469 24.89212417602539 4.752017974853516 21.38555908203125 6.235172271728516 C 17.99660491943359 7.668582916259766 14.9521598815918 9.721466064453125 12.33681869506836 12.33681869506836 C 9.721466064453125 14.9521598815918 7.668582916259766 17.99660491943359 6.235172271728516 21.38555908203125 C 4.752017974853516 24.89212417602539 3.999992370605469 28.61934661865234 3.999992370605469 32.46367645263672 C 3.999992370605469 36.30800628662109 4.752017974853516 40.03522872924805 6.235172271728516 43.54179382324219 C 7.668582916259766 46.93075942993164 9.721466064453125 49.97519302368164 12.33681869506836 52.59053421020508 C 14.9521598815918 55.20587539672852 17.9965934753418 57.25876998901367 21.38555908203125 58.69216918945312 C 24.89212417602539 60.17532348632812 28.61934661865234 60.92734527587891 32.46367645263672 60.92734527587891 C 36.30801773071289 60.92734527587891 40.03522872924805 60.17532348632812 43.54179382324219 58.69216918945312 C 46.93075942993164 57.25876998901367 49.97519302368164 55.20587539672852 52.59053421020508 52.59053421020508 C 55.20587539672852 49.97519302368164 57.25876998901367 46.93075942993164 58.69216918945312 43.54179382324219 C 60.17532348632812 40.03522872924805 60.92734527587891 36.30801773071289 60.92734527587891 32.46367645263672 C 60.92734527587891 28.61934661865234 60.17532348632812 24.89212417602539 58.69216918945312 21.38555908203125 C 57.25876998901367 17.9965934753418 55.20587539672852 14.9521598815918 52.59053421020508 12.33681869506836 C 49.97519302368164 9.721466064453125 46.93075942993164 7.668582916259766 43.54179382324219 6.235172271728516 C 40.03522872924805 4.752017974853516 36.30800628662109 3.999992370605469 32.46367645263672 3.999992370605469 M 32.46367645263672 -7.62939453125e-06 C 50.39287567138672 -7.62939453125e-06 64.92734527587891 14.53448867797852 64.92734527587891 32.46367645263672 C 64.92734527587891 50.39287567138672 50.39287567138672 64.92734527587891 32.46367645263672 64.92734527587891 C 14.53448867797852 64.92734527587891 -7.62939453125e-06 50.39287567138672 -7.62939453125e-06 32.46367645263672 C -7.62939453125e-06 14.53448867797852 14.53448867797852 -7.62939453125e-06 32.46367645263672 -7.62939453125e-06 Z" stroke="none" fill="#000"/>
      </g>
      <text id="_0" data-name="0" transform="translate(10169.185 -15836.999)" fill="#fff" font-size="26" font-family="BaiJamjuree-Bold, Bai Jamjuree" font-weight="700"><tspan x="0" y="0">0</tspan></text>
    </g>
    <g id="Group_69673" data-name="Group 69673" transform="translate(-63 -5)">
      <path id="Path_87443" data-name="Path 87443" d="M-16702.828-8169.731h79.611l7.162,3.688v5.512l-4.324,4.938-2.838.691-9.16,33.395-6.445,6.649-48.256-.855-7.791-10.64-4.7-24.621-.914-1.959-3.328-2.661-3.721-2.628-1.014-7.822Z" transform="translate(17848 8677)" fill="#fff"/>
      <path id="Path_87442" data-name="Path 87442" d="M170.931,83.679a1.2,1.2,0,0,0-1.674.239L149.4,110.229H138.043a8.73,8.73,0,0,0-.718,17.341l6.458,28.583h0A14.233,14.233,0,0,0,157.776,167.4h38.27a14.232,14.232,0,0,0,13.992-11.122L216.5,127.69a8.73,8.73,0,0,0-.718-17.341H205.733L185.88,84.038h0a1.2,1.2,0,0,0-1.914,1.436l18.777,24.756h-50.35L171.17,85.354a1.2,1.2,0,0,0-.239-1.674Zm36.716,72a11.84,11.84,0,0,1-11.6,9.328h-38.27a11.841,11.841,0,0,1-11.72-9.328l-6.219-27.985h74.149ZM222,118.959h0a6.34,6.34,0,0,1-6.338,6.338H137.923a6.339,6.339,0,0,1,0-12.558H215.66a6.337,6.337,0,0,1,6.458,6.219Z" transform="translate(1008.59 395.604)" stroke="#000" stroke-width="2"/>
    </g>
  </g>
</svg>
