<svg width="40" height="40" viewBox="0 0 40 40" fill="none" xmlns="http://www.w3.org/2000/svg">
	<circle cx="20" cy="20" r="20" fill="#4FAB2F" />
	<path d="M17.5448 25.5876C17.4114 25.5876 17.2864 25.5666 17.1698 25.5246C17.0531 25.4833 16.9448 25.4126 16.8448 25.3126L12.5448 21.0126C12.3614 20.8293 12.2738 20.5916 12.2818 20.2996C12.2904 20.0083 12.3864 19.7709 12.5698 19.5876C12.7531 19.4043 12.9864 19.3126 13.2698 19.3126C13.5531 19.3126 13.7864 19.4043 13.9698 19.5876L17.5448 23.1626L26.0198 14.6876C26.2031 14.5043 26.4408 14.4126 26.7328 14.4126C27.0241 14.4126 27.2614 14.5043 27.4448 14.6876C27.6281 14.8709 27.7198 15.1083 27.7198 15.3996C27.7198 15.6916 27.6281 15.9293 27.4448 16.1126L18.2448 25.3126C18.1448 25.4126 18.0364 25.4833 17.9198 25.5246C17.8031 25.5666 17.6781 25.5876 17.5448 25.5876Z" fill="white" />
</svg>
