<svg xmlns="http://www.w3.org/2000/svg" width="16.968" height="14.219" viewBox="0 0 16.968 14.219">
  <path id="layer" d="M14.288,1.133A3.425,3.425,0,0,0,11.747,0a3.537,3.537,0,0,0-3.48,3.59,3.676,3.676,0,0,0,.09.817A9.783,9.783,0,0,1,1.181.655,3.671,3.671,0,0,0,.71,2.462,3.617,3.617,0,0,0,2.259,5.449,3.4,3.4,0,0,1,.681,5v.044a3.564,3.564,0,0,0,2.794,3.52,3.3,3.3,0,0,1-.917.127A3.374,3.374,0,0,1,1.9,8.628,3.5,3.5,0,0,0,5.154,11.12,6.851,6.851,0,0,1,.83,12.657,6.938,6.938,0,0,1,0,12.608a9.652,9.652,0,0,0,5.336,1.611c6.4,0,9.9-5.469,9.9-10.213,0-.156,0-.312-.009-.465a7.165,7.165,0,0,0,1.736-1.858,6.789,6.789,0,0,1-2,.565A3.58,3.58,0,0,0,16.5.263,6.822,6.822,0,0,1,14.288,1.133Z"/>
</svg>
